<?xml version="1.0" encoding="utf-8"?>
<!-- Generator: Adobe Illustrator 25.0.0, SVG Export Plug-In . SVG Version: 6.00 Build 0)  -->
<svg version="1.1" id="Layer_1" xmlns="http://www.w3.org/2000/svg" xmlns:xlink="http://www.w3.org/1999/xlink" x="0px" y="0px"
	 viewBox="0 0 92 77" style="enable-background:new 0 0 92 77;" xml:space="preserve">
<style type="text/css">
	.st0{fill:#007BFF;}
	.st1{enable-background:new    ;}
	.st2{fill:#FFFFFF;}
	.st3{fill:#4374BA;}
</style>
<g>
	<path class="st0" d="M88,75.9H4c-1.5,0-2.7-1.2-2.7-2.7V3.8c0-1.5,1.2-2.7,2.7-2.7H88c1.5,0,2.7,1.2,2.7,2.7v69.3
		C90.7,74.7,89.5,75.9,88,75.9z"/>
</g>
<g class="st1">
	<path class="st2" d="M39.9,32.7h-3.5l-0.8,2.1h-1.6l3.3-9.1h1.5H39l3.3,9.1h-1.6L39.9,32.7z M39.5,31.4l-1.3-3.7l-1.3,3.7H39.5z"/>
	<path class="st2" d="M50.1,28.7c0,0.4-0.1,0.8-0.2,1.2c-0.1,0.4-0.3,0.7-0.6,0.9c-0.3,0.3-0.6,0.5-1,0.6c-0.4,0.1-0.8,0.2-1.3,0.2
		h-2v3.1h-1.5v-9.1H45h2.1c0.5,0,0.9,0.1,1.3,0.2c0.4,0.1,0.7,0.3,0.9,0.6c0.3,0.3,0.5,0.6,0.6,0.9S50.1,28.3,50.1,28.7z M48.4,28.7
		c0-0.5-0.1-0.8-0.4-1.1c-0.3-0.3-0.7-0.4-1.2-0.4H45v3.2h1.8c0.5,0,1-0.2,1.2-0.5C48.3,29.6,48.4,29.2,48.4,28.7z"/>
	<path class="st2" d="M51.4,34.9v-9.1H53v9.1H51.4z"/>
</g>
<g class="st1">
	<path class="st2" d="M24.8,38.2v9h-1.1v-6.6l-2.7,6.6h-1l-2.7-6.5v6.5h-1v-9h1l3.2,7.7l3.2-7.7L24.8,38.2z"/>
	<path class="st2" d="M30.8,38c0.6,0,1.2,0.1,1.7,0.3c0.5,0.2,1,0.6,1.4,1s0.7,0.9,0.9,1.5c0.2,0.6,0.3,1.2,0.3,1.9
		c0,0.7-0.1,1.3-0.3,1.9c-0.2,0.6-0.5,1.1-0.9,1.5c-0.4,0.4-0.8,0.7-1.4,1s-1.1,0.3-1.7,0.3c-0.6,0-1.2-0.1-1.7-0.3
		c-0.5-0.2-1-0.6-1.4-1c-0.4-0.4-0.7-0.9-0.9-1.5s-0.3-1.2-0.3-1.9c0-0.7,0.1-1.3,0.3-1.9c0.2-0.6,0.5-1.1,0.9-1.5
		c0.4-0.4,0.8-0.7,1.4-1C29.6,38.1,30.1,38,30.8,38z M30.8,46.3c0.5,0,0.9-0.1,1.3-0.3c0.4-0.2,0.7-0.4,1-0.7
		c0.3-0.3,0.5-0.7,0.7-1.1s0.2-0.9,0.2-1.5c0-0.5-0.1-1-0.2-1.5c-0.2-0.4-0.4-0.8-0.7-1.1s-0.6-0.6-1-0.7c-0.4-0.2-0.8-0.3-1.3-0.3
		c-0.5,0-0.9,0.1-1.3,0.3c-0.4,0.2-0.7,0.4-1,0.7s-0.5,0.7-0.6,1.1c-0.2,0.4-0.2,0.9-0.2,1.5c0,0.5,0.1,1,0.2,1.5
		c0.2,0.4,0.4,0.8,0.6,1.1c0.3,0.3,0.6,0.6,1,0.7C29.8,46.2,30.3,46.3,30.8,46.3z"/>
	<path class="st2" d="M43.6,38.2v9h-1.1l-4.8-7.2v7.2h-1.1v-9h1.1l4.8,7.2v-7.2H43.6z"/>
	<path class="st2" d="M45.8,47.2v-9h1.1v9H45.8z"/>
	<path class="st2" d="M54.7,39.2H52v8h-1.1v-8h-2.7v-1h6.5V39.2z"/>
	<path class="st2" d="M59.4,38c0.6,0,1.2,0.1,1.7,0.3s1,0.6,1.4,1c0.4,0.4,0.7,0.9,0.9,1.5c0.2,0.6,0.3,1.2,0.3,1.9
		c0,0.7-0.1,1.3-0.3,1.9c-0.2,0.6-0.5,1.1-0.9,1.5c-0.4,0.4-0.8,0.7-1.4,1s-1.1,0.3-1.7,0.3c-0.6,0-1.2-0.1-1.7-0.3
		c-0.5-0.2-1-0.6-1.4-1c-0.4-0.4-0.7-0.9-0.9-1.5c-0.2-0.6-0.3-1.2-0.3-1.9c0-0.7,0.1-1.3,0.3-1.9c0.2-0.6,0.5-1.1,0.9-1.5
		c0.4-0.4,0.8-0.7,1.4-1C58.2,38.1,58.8,38,59.4,38z M59.4,46.3c0.5,0,0.9-0.1,1.3-0.3c0.4-0.2,0.7-0.4,1-0.7
		c0.3-0.3,0.5-0.7,0.7-1.1c0.2-0.4,0.2-0.9,0.2-1.5c0-0.5-0.1-1-0.2-1.5c-0.2-0.4-0.4-0.8-0.7-1.1s-0.6-0.6-1-0.7
		c-0.4-0.2-0.8-0.3-1.3-0.3s-0.9,0.1-1.3,0.3c-0.4,0.2-0.7,0.4-1,0.7s-0.5,0.7-0.7,1.1c-0.2,0.4-0.2,0.9-0.2,1.5
		c0,0.5,0.1,1,0.2,1.5s0.4,0.8,0.7,1.1c0.3,0.3,0.6,0.6,1,0.7S58.9,46.3,59.4,46.3z"/>
	<path class="st2" d="M71.8,47.2h-1.2l-1.7-3.6h-2.5v3.6h-1.1v-9h3.4c1,0,1.7,0.2,2.2,0.7s0.8,1.1,0.8,2c0,0.7-0.2,1.2-0.5,1.6
		s-0.8,0.7-1.3,0.9L71.8,47.2z M70.7,40.8c0-0.5-0.2-1-0.5-1.2s-0.8-0.5-1.4-0.5h-2.4v3.4h2.4c0.6,0,1.1-0.2,1.4-0.5
		C70.5,41.8,70.7,41.4,70.7,40.8z"/>
</g>
<g class="st1">
	<path class="st2" d="M8.3,39.3c0.5,0.4,0.9,0.9,1.2,1.5C9.8,41.4,10,42,10,42.7v8.6c0,0.7,0.3,1.3,0.8,1.8s1.1,0.8,1.8,0.8v1.8
		c-0.5,0-1-0.1-1.5-0.3c-0.9-0.3-1.5-0.8-2.1-1.5c-0.5-0.7-0.8-1.6-0.8-2.5v-8.6c0-0.7-0.2-1.3-0.7-1.7c-0.5-0.5-1.1-0.7-1.7-0.7
		v-1.9c0.7,0,1.3-0.2,1.7-0.7c0.5-0.5,0.7-1.1,0.7-1.8v-8.7c0-0.9,0.3-1.7,0.8-2.4c0.5-0.7,1.2-1.3,2.1-1.6c0.4-0.2,0.9-0.3,1.6-0.3
		v1.9c-0.7,0-1.3,0.2-1.8,0.7c-0.5,0.5-0.8,1.1-0.8,1.7v8.7c0,0.7-0.2,1.3-0.5,1.9C9.2,38.4,8.8,38.9,8.3,39.3z"/>
</g>
<g class="st1">
	<path class="st2" d="M85.3,38.3v1.9c-0.7,0-1.3,0.2-1.7,0.7c-0.5,0.5-0.7,1.1-0.7,1.7v8.6c0,0.9-0.3,1.8-0.8,2.5
		c-0.5,0.7-1.2,1.2-2.1,1.6c-0.4,0.2-0.9,0.3-1.5,0.3v-1.8c0.7,0,1.3-0.3,1.8-0.8S81,52,81,51.3v-8.6c0-0.7,0.2-1.3,0.5-1.9
		c0.3-0.6,0.7-1.1,1.2-1.5c-0.5-0.4-0.9-0.9-1.2-1.5S81,36.5,81,35.9v-8.7c0-0.7-0.3-1.3-0.8-1.7c-0.5-0.5-1.1-0.7-1.8-0.7v-1.9
		c0.7,0,1.2,0.1,1.6,0.3c0.8,0.3,1.5,0.9,2,1.6c0.5,0.7,0.8,1.5,0.8,2.4v8.7c0,0.7,0.2,1.3,0.7,1.8C84,38.1,84.6,38.3,85.3,38.3z"/>
</g>
<path class="st3" d="M88-12.2H4c-1.5,0-2.7-1.2-2.7-2.7v-69.3c0-1.5,1.2-2.7,2.7-2.7H88c1.5,0,2.7,1.2,2.7,2.7v69.3
	C90.7-13.4,89.4-12.2,88-12.2z"/>
<text transform="matrix(1 0 0 1 35.9443 -53.1779)" class="st2" style="font-family:'Biotif-SemiBold'; font-size:12.4985px;">API</text>
<text transform="matrix(1 0 0 1 17.21 -40.8889)" class="st2" style="font-family:'Biotif-Regular'; font-size:12.4985px;">MONITOR</text>
<text transform="matrix(1 0 0 1 4.3877 -34.2033)" class="st2" style="font-family:'Biotif-Light'; font-size:41.0085px;">{</text>
<text transform="matrix(1 0 0 1 79.2197 -34.2033)" class="st2" style="font-family:'Biotif-Light'; font-size:41.0085px;">}</text>
</svg>
